<svg width="18" height="16" viewBox="0 0 18 16" fill="none" xmlns="http://www.w3.org/2000/svg">
<path fill-rule="evenodd" clip-rule="evenodd" d="M7.31174 15.5818H11.0151C13.6159 15.5818 14.9167 15.5818 15.8509 14.9693C16.2541 14.7053 16.6013 14.3643 16.8726 13.966C17.4967 13.0493 17.4967 11.7718 17.4967 9.21849C17.4967 6.66516 17.4967 5.38766 16.8726 4.47099C16.6013 4.07265 16.2541 3.73171 15.8509 3.46766C15.2509 3.07349 14.4992 2.93266 13.3484 2.88266C12.7992 2.88266 12.3267 2.47433 12.2192 1.94516C12.1371 1.55755 11.9236 1.21019 11.615 0.961785C11.3063 0.713381 10.9213 0.579166 10.5251 0.581826H7.80174C6.97841 0.581826 6.26924 1.15266 6.10758 1.94516C6.00008 2.47433 5.52758 2.88266 4.97841 2.88266C3.82841 2.93266 3.07674 3.07433 2.47591 3.46766C2.07303 3.73179 1.72614 4.07273 1.45508 4.47099C0.830078 5.38766 0.830078 6.66433 0.830078 9.21849C0.830078 11.7727 0.830078 13.0485 1.45424 13.966C1.72424 14.3627 2.07091 14.7035 2.47591 14.9693C3.41008 15.5818 4.71091 15.5818 7.31174 15.5818ZM9.16341 5.80933C7.24591 5.80933 5.69091 7.33516 5.69091 9.21766C5.69091 11.1002 7.24674 12.6285 9.16341 12.6285C11.0801 12.6285 12.6359 11.1018 12.6359 9.21933C12.6359 7.33683 11.0801 5.80933 9.16341 5.80933ZM9.16341 7.17266C8.01341 7.17266 7.08008 8.08849 7.08008 9.21849C7.08008 10.3477 8.01341 11.2635 9.16341 11.2635C10.3134 11.2635 11.2467 10.3477 11.2467 9.21849C11.2467 8.08933 10.3134 7.17266 9.16341 7.17266ZM13.0984 6.49099C13.0984 6.11433 13.4092 5.80933 13.7934 5.80933H14.7184C15.1017 5.80933 15.4134 6.11433 15.4134 6.49099C15.4117 6.67341 15.3376 6.84766 15.2074 6.97548C15.0772 7.10329 14.9017 7.17421 14.7192 7.17266H13.7934C13.703 7.17354 13.6133 7.1566 13.5295 7.12282C13.4456 7.08904 13.3693 7.03907 13.3047 6.97577C13.2402 6.91247 13.1887 6.83708 13.1533 6.7539C13.1179 6.67072 13.0993 6.58139 13.0984 6.49099Z" fill="black"/>
</svg>
