<svg width="44" height="43" viewBox="0 0 44 43" fill="none" xmlns="http://www.w3.org/2000/svg">
<path fill-rule="evenodd" clip-rule="evenodd" d="M22 37.625C24.1176 37.625 26.2144 37.2079 28.1708 36.3976C30.1271 35.5872 31.9048 34.3994 33.4021 32.9021C34.8994 31.4048 36.0872 29.6271 36.8976 27.6708C37.7079 25.7144 38.125 23.6176 38.125 21.5C38.125 19.3824 37.7079 17.2856 36.8976 15.3292C36.0872 13.3729 34.8994 11.5952 33.4021 10.0979C31.9048 8.60056 30.1271 7.4128 28.1708 6.60244C26.2144 5.79209 24.1176 5.375 22 5.375C17.7234 5.375 13.6219 7.07388 10.5979 10.0979C7.57388 13.1219 5.875 17.2234 5.875 21.5C5.875 25.7766 7.57388 29.8781 10.5979 32.9021C13.6219 35.9261 17.7234 37.625 22 37.625ZM21.5843 28.0217L30.5427 17.2717L27.7907 14.9783L20.0865 24.2215L16.1 20.2333L13.5666 22.7667L18.9416 28.1417L20.3284 29.5285L21.5843 28.0217Z" fill="#03ABFF"/>
</svg>
