<svg width="23" height="23" viewBox="0 0 23 23" fill="none" xmlns="http://www.w3.org/2000/svg">
<path fill-rule="evenodd" clip-rule="evenodd" d="M12.4182 22.5896C18.5119 22.3569 23.0302 16.8669 22.636 10.7815C22.2686 5.10805 18.0989 0.642082 12.4182 0.411415C11.0487 0.355806 9.73763 0.572643 8.52729 1.01152C4.35814 2.52329 1.38433 6.66966 1.33751 11.3906C1.28728 16.4556 4.66313 20.9306 9.28855 22.2229C10.2814 22.5003 11.3317 22.6311 12.4182 22.5896ZM19.8447 10.7815C20.2307 15.2913 16.9405 19.492 12.4182 19.6799C11.3086 19.726 10.2516 19.5246 9.28855 19.1275C7.45118 18.3699 5.95618 16.9002 5.09212 15.0785C4.55916 13.9549 4.26624 12.6974 4.28108 11.3906C4.31937 8.01778 6.36882 5.01863 9.28855 3.82622C10.2508 3.43322 11.3077 3.23648 12.4182 3.2873C16.5342 3.47565 19.4934 6.67624 19.8447 10.7815Z" fill="url(#paint0_linear_351_700)"/>
<path d="M9.28855 22.2229C4.66313 20.9306 1.28728 16.4556 1.33751 11.3906C1.38433 6.66966 4.35814 2.52329 8.52729 1.01152C8.52729 1.01152 0.339844 2.84747 0.339844 11.3906C0.339844 20.8303 9.28855 22.2229 9.28855 22.2229Z" fill="url(#paint1_linear_351_700)"/>
<path d="M12.4182 19.6799C16.9405 19.492 20.2307 15.2913 19.8447 10.7815C19.4934 6.67624 16.5342 3.47565 12.4182 3.2873C11.3077 3.23648 10.2508 3.43322 9.28855 3.82622C6.36882 5.01863 4.31937 8.01778 4.28108 11.3906C4.26624 12.6974 4.55916 13.9549 5.09212 15.0785C5.95618 16.9002 7.45118 18.3699 9.28855 19.1275C10.2516 19.5246 11.3086 19.726 12.4182 19.6799Z" fill="url(#paint2_linear_351_700)"/>
<g opacity="0.3">
<path fill-rule="evenodd" clip-rule="evenodd" d="M7.01395 9.65939C6.29288 11.6758 6.81073 13.8204 8.19856 15.2648C8.9429 14.8066 9.56441 14.226 10.0432 13.5389C10.7114 12.5799 11.0885 11.4321 11.1531 10.161C11.2146 8.95153 10.992 7.65303 10.4975 6.33281C8.93581 6.8224 7.60487 8.00688 7.01395 9.65939ZM11.4214 6.12893C11.4309 6.40241 11.4533 6.67153 11.4887 6.93561C11.6608 8.21821 12.1369 9.35665 12.8897 10.2859C13.6425 11.2152 14.6574 11.9171 15.8764 12.3516C16.3558 12.5225 16.8632 12.6507 17.3935 12.7357C17.9885 10.1583 16.6554 7.51229 14.1448 6.48268C13.2532 6.11703 12.3173 6.01164 11.4214 6.12893Z" fill="#D59327"/>
<path fill-rule="evenodd" clip-rule="evenodd" d="M17.1814 13.4395C16.5441 13.2205 15.9098 13.077 15.2873 13.0122C14.0214 12.8803 12.8292 13.0763 11.7788 13.5889C10.7284 14.1015 9.84034 14.9207 9.16533 15.9997L9.12879 16.0382C9.42278 16.2318 9.74005 16.4002 10.0787 16.5391C12.8813 17.6884 16.1217 16.2663 17.1814 13.4395Z" fill="#D59327"/>
</g>
<defs>
<linearGradient id="paint0_linear_351_700" x1="11.1837" y1="22.5972" x2="11.2175" y2="0.131363" gradientUnits="userSpaceOnUse">
<stop stop-color="#EAB11E"/>
<stop offset="0.51357" stop-color="#F3A707"/>
<stop offset="1" stop-color="#F7A105"/>
</linearGradient>
<linearGradient id="paint1_linear_351_700" x1="5.16119" y1="20.8378" x2="4.97511" y2="2.39824" gradientUnits="userSpaceOnUse">
<stop stop-color="#DF7E26"/>
<stop offset="0.5" stop-color="#EBA422"/>
<stop offset="1" stop-color="#DF7E26"/>
</linearGradient>
<linearGradient id="paint2_linear_351_700" x1="4.41651" y1="11.7632" x2="27.2301" y2="15.0881" gradientUnits="userSpaceOnUse">
<stop offset="0.0869415" stop-color="#FED84B"/>
<stop offset="0.889273" stop-color="#FEBB09"/>
</linearGradient>
</defs>
</svg>
