<svg width="193" height="194" viewBox="0 0 193 194" fill="none" xmlns="http://www.w3.org/2000/svg">
<path fill-rule="evenodd" clip-rule="evenodd" d="M0.703996 104.643C2.72016 157.436 50.2836 196.581 103.005 193.167C152.159 189.983 190.85 153.858 192.849 104.643C193.33 92.778 191.452 81.4193 187.649 70.9333C174.552 34.8132 138.629 9.0491 97.729 8.64348C53.8476 8.20829 15.0777 37.4555 3.88084 77.5286C1.47753 86.13 0.344541 95.2301 0.703996 104.643ZM103.005 168.984C63.9339 172.328 27.5412 143.823 25.913 104.643C25.5135 95.0297 27.2585 85.8717 30.6985 77.5286C37.2619 61.6103 49.9957 48.6581 65.7781 41.1722C75.5127 36.5548 86.4072 34.0171 97.729 34.1456C126.95 34.4773 152.933 52.2331 163.264 77.5286C166.669 85.8655 168.373 95.0215 167.933 104.643C166.301 140.302 138.572 165.94 103.005 168.984Z" fill="url(#paint0_linear_352_2061)"/>
<path d="M3.88084 77.5286C15.0777 37.4555 53.8476 8.20829 97.729 8.64348C138.629 9.0491 174.552 34.8132 187.649 70.9333C187.649 70.9333 171.743 3.05176e-05 97.729 3.05176e-05C15.9465 3.05176e-05 3.88084 77.5286 3.88084 77.5286Z" fill="url(#paint1_linear_352_2061)"/>
<path d="M25.913 104.643C27.5412 143.823 63.9339 172.328 103.005 168.984C138.572 165.94 166.301 140.302 167.933 104.643C168.373 95.0215 166.669 85.8655 163.264 77.5286C152.933 52.2331 126.95 34.4773 97.729 34.1456C86.4072 34.0171 75.5127 36.5548 65.7781 41.1722C49.9957 48.6581 37.2619 61.6103 30.6985 77.5286C27.2585 85.8717 25.5135 95.0297 25.913 104.643Z" fill="url(#paint2_linear_352_2061)"/>
<g opacity="0.3">
<path fill-rule="evenodd" clip-rule="evenodd" d="M112.728 57.8168C95.2583 51.5697 76.6786 56.0562 64.1647 68.0798C68.1343 74.5286 73.1643 79.9132 79.1178 84.0613C87.4261 89.8502 97.3704 93.1177 108.383 93.6773C118.861 94.2098 130.111 92.2809 141.548 87.9967C137.307 74.4671 127.045 62.9363 112.728 57.8168ZM143.315 96.0015C140.946 96.0833 138.614 96.2775 136.326 96.5844C125.214 98.0754 115.351 102.2 107.3 108.722C99.249 115.245 93.1678 124.037 89.4036 134.598C87.9231 138.752 86.8124 143.147 86.0763 147.742C108.406 152.897 131.33 141.347 140.25 119.596C143.418 111.872 144.331 103.763 143.315 96.0015Z" fill="#D59327"/>
<path fill-rule="evenodd" clip-rule="evenodd" d="M79.9787 145.904C81.8762 140.383 83.1192 134.888 83.6809 129.494C84.8231 118.527 83.1253 108.198 78.6843 99.098C74.2433 89.9976 67.1462 82.3037 57.7981 76.4556L57.4639 76.1391C55.7866 78.6861 54.3284 81.4348 53.125 84.3691C43.1675 108.65 55.4877 136.724 79.9787 145.904Z" fill="#D59327"/>
</g>
<defs>
<linearGradient id="paint0_linear_352_2061" x1="0.638672" y1="93.9472" x2="195.275" y2="94.2403" gradientUnits="userSpaceOnUse">
<stop stop-color="#EAB11E"/>
<stop offset="0.51357" stop-color="#F3A707"/>
<stop offset="1" stop-color="#F7A105"/>
</linearGradient>
<linearGradient id="paint1_linear_352_2061" x1="15.8813" y1="41.7706" x2="175.635" y2="40.1584" gradientUnits="userSpaceOnUse">
<stop stop-color="#DF7E26"/>
<stop offset="0.5" stop-color="#EBA422"/>
<stop offset="1" stop-color="#DF7E26"/>
</linearGradient>
<linearGradient id="paint2_linear_352_2061" x1="94.5005" y1="35.3189" x2="65.6946" y2="232.968" gradientUnits="userSpaceOnUse">
<stop offset="0.0869415" stop-color="#FED84B"/>
<stop offset="0.889273" stop-color="#FEBB09"/>
</linearGradient>
</defs>
</svg>
