<svg width="17" height="18" viewBox="0 0 17 18" fill="none" xmlns="http://www.w3.org/2000/svg">
<path d="M15.8575 9.63571C16 9.29155 16 8.85405 16 7.98071C16 7.10738 16 6.66988 15.8575 6.32571C15.7633 6.09816 15.6251 5.89139 15.451 5.71724C15.2768 5.54308 15.0701 5.40494 14.8425 5.31071C14.4983 5.16821 14.0608 5.16821 13.1875 5.16821H7.75C6.7 5.16821 6.175 5.16821 5.77417 5.37238C5.42105 5.5522 5.13398 5.83926 4.95417 6.19238C4.75 6.59238 4.75 7.11738 4.75 8.16821V13.6057C4.75 14.479 4.75 14.9165 4.8925 15.2607C5.08333 15.7199 5.44833 16.0857 5.9075 16.2757C6.25167 16.4182 6.68917 16.4182 7.5625 16.4182C8.43583 16.4182 8.87333 16.4182 9.2175 16.2757M15.8575 9.63571C15.7633 9.86327 15.6251 10.07 15.451 10.2442C15.2768 10.4183 15.0701 10.5565 14.8425 10.6507C14.4983 10.7932 14.0608 10.7932 13.1875 10.7932C12.3142 10.7932 11.8767 10.7932 11.5325 10.9357C11.3049 11.0299 11.0982 11.1681 10.924 11.3422C10.7499 11.5164 10.6117 11.7232 10.5175 11.9507C10.375 12.2949 10.375 12.7324 10.375 13.6057C10.375 14.479 10.375 14.9165 10.2325 15.2607C10.1383 15.4883 10.0001 15.695 9.82598 15.8692C9.65182 16.0433 9.44506 16.1815 9.2175 16.2757M15.8575 9.63571C15.4092 11.1815 14.5846 12.5919 13.4575 13.7408C12.3304 14.8897 10.936 15.7412 9.39917 16.219L9.2175 16.2757M12.25 5.16821V4.41821C12.25 3.36821 12.25 2.84321 12.0458 2.44238C11.8662 2.08939 11.5795 1.80234 11.2267 1.62238C10.825 1.41821 10.3 1.41821 9.25 1.41821H4C2.95 1.41821 2.425 1.41821 2.02417 1.62238C1.67105 1.8022 1.38398 2.08926 1.20417 2.44238C1 2.84238 1 3.36738 1 4.41821V9.66821C1 10.7182 1 11.2432 1.20417 11.644C1.38417 11.9974 1.67083 12.284 2.02417 12.464C2.42417 12.6682 2.95 12.6682 4.00083 12.6682H4.75" stroke="white" stroke-width="1.25" stroke-linecap="round" stroke-linejoin="round"/>
</svg>
