<svg width="32" height="33" viewBox="0 0 32 33" fill="none" xmlns="http://www.w3.org/2000/svg">
<g clip-path="url(#clip0_123_139)">
<path d="M24.5 0.581787H7.5C3.35786 0.581787 0 3.93965 0 8.08179V25.0818C0 29.2239 3.35786 32.5818 7.5 32.5818H24.5C28.6421 32.5818 32 29.2239 32 25.0818V8.08179C32 3.93965 28.6421 0.581787 24.5 0.581787Z" fill="#5865F2"/>
<mask id="mask0_123_139" style="mask-type:luminance" maskUnits="userSpaceOnUse" x="3" y="6" width="26" height="21">
<path d="M3.5 6.95679H28.5V26.323H3.5V6.95679Z" fill="white"/>
</mask>
<g mask="url(#mask0_123_139)">
<path d="M24.6634 8.68144C23.0426 7.93753 21.3321 7.40698 19.5748 7.10307C19.5588 7.10015 19.5424 7.10232 19.5277 7.10928C19.513 7.11623 19.5009 7.12761 19.4931 7.14182C19.2733 7.53257 19.0298 8.04257 18.8594 8.44332C16.9378 8.15557 15.0262 8.15557 13.144 8.44332C12.9735 8.03357 12.7213 7.53257 12.5005 7.14182C12.4924 7.12784 12.4802 7.11666 12.4656 7.10974C12.451 7.10282 12.4346 7.10049 12.4187 7.10307C10.6612 7.40629 8.95063 7.93687 7.33005 8.68144C7.31625 8.68745 7.30458 8.69747 7.29655 8.71019C4.05555 13.5522 3.1678 18.2752 3.6033 22.9397C3.60595 22.9627 3.61764 22.9838 3.6358 22.9982C5.77405 24.5686 7.84542 25.5219 9.8783 26.1538C9.89412 26.1585 9.91098 26.1583 9.92666 26.1531C9.94233 26.148 9.95607 26.1382 9.96605 26.1251C10.4469 25.4683 10.8755 24.7759 11.2432 24.0478C11.2482 24.0378 11.2511 24.0269 11.2517 24.0157C11.2522 24.0046 11.2503 23.9934 11.2462 23.983C11.2421 23.9726 11.2359 23.9632 11.2279 23.9554C11.2199 23.9476 11.2103 23.9415 11.1998 23.9377C10.5198 23.6797 9.87242 23.3653 9.24967 23.0082C9.23833 23.0015 9.22881 22.9921 9.22194 22.9809C9.21507 22.9697 9.21107 22.9569 9.2103 22.9438C9.20952 22.9306 9.21198 22.9175 9.21748 22.9056C9.22297 22.8936 9.23132 22.8832 9.2418 22.8752C9.37318 22.777 9.5023 22.6758 9.62905 22.5717C9.64016 22.5625 9.6536 22.5567 9.66786 22.5547C9.68212 22.5528 9.69665 22.5548 9.7098 22.5607C13.8013 24.4287 18.2307 24.4287 22.2738 22.5607C22.287 22.5545 22.3017 22.5521 22.3162 22.5539C22.3307 22.5557 22.3444 22.5615 22.3557 22.5707C22.4826 22.6754 22.612 22.7769 22.7439 22.8752C22.7544 22.8831 22.7629 22.8935 22.7684 22.9054C22.774 22.9173 22.7766 22.9304 22.7759 22.9435C22.7752 22.9567 22.7713 22.9694 22.7645 22.9807C22.7578 22.992 22.7483 23.0014 22.7371 23.0082C22.114 23.372 21.4613 23.6826 20.7859 23.9367C20.7755 23.9407 20.766 23.9469 20.7581 23.9549C20.7501 23.9628 20.744 23.9723 20.74 23.9828C20.736 23.9933 20.7342 24.0045 20.7349 24.0157C20.7355 24.0269 20.7384 24.0378 20.7436 24.0478C21.1175 24.7702 21.544 25.4641 22.0196 26.1241C22.0293 26.1375 22.043 26.1476 22.0587 26.1529C22.0744 26.1583 22.0914 26.1586 22.1073 26.1538C24.1501 25.5219 26.2214 24.5686 28.3598 22.9982C28.3689 22.9914 28.3766 22.9828 28.3822 22.9729C28.3878 22.963 28.3912 22.952 28.3923 22.9407C28.9136 17.5481 27.5192 12.8637 24.6959 8.71119C24.6891 8.69766 24.6775 8.68708 24.6634 8.68144ZM11.8542 20.0996C10.6223 20.0996 9.6073 18.9687 9.6073 17.5798C9.6073 16.1909 10.6027 15.0601 11.8542 15.0601C13.1154 15.0601 14.1206 16.2009 14.1008 17.5798C14.1008 18.9687 13.1055 20.0996 11.8542 20.0996ZM20.1612 20.0996C18.9293 20.0996 17.9144 18.9687 17.9144 17.5798C17.9144 16.1909 18.9097 15.0601 20.1612 15.0601C21.4224 15.0601 22.4276 16.2009 22.4079 17.5798C22.4079 18.9687 21.4224 20.0996 20.1612 20.0996Z" fill="white"/>
</g>
</g>
<defs>
<clipPath id="clip0_123_139">
<rect width="32" height="32" fill="white" transform="translate(0 0.581787)"/>
</clipPath>
</defs>
</svg>
