<svg width="32" height="33" viewBox="0 0 32 33" fill="none" xmlns="http://www.w3.org/2000/svg">
<rect y="0.581787" width="32" height="32" rx="4" fill="#F4B30C"/>
<path d="M10.3748 9.91504H21.6248C22.3166 9.91499 22.9822 10.1797 23.485 10.6548C23.9879 11.1299 24.2898 11.7794 24.329 12.47L24.3332 12.6234V20.54C24.3332 21.2318 24.0685 21.8974 23.5934 22.4002C23.1183 22.9031 22.4688 23.205 21.7782 23.2442L21.6248 23.2484H10.3748C9.68306 23.2484 9.01748 22.9837 8.51464 22.5086C8.01181 22.0335 7.70984 21.384 7.67067 20.6934L7.6665 20.54V12.6234C7.66646 11.9316 7.93113 11.266 8.40623 10.7632C8.88133 10.2603 9.53083 9.95837 10.2215 9.91921L10.3748 9.91504ZM23.0832 14.3925L16.2915 17.9675C16.2148 18.0081 16.1305 18.0322 16.044 18.0383C15.9575 18.0445 15.8707 18.0326 15.789 18.0034L15.709 17.9684L8.9165 14.3934V20.54C8.91652 20.906 9.05415 21.2586 9.30207 21.5279C9.54999 21.7971 9.89009 21.9633 10.2548 21.9934L10.3748 21.9984H21.6248C21.991 21.9983 22.3437 21.8606 22.6129 21.6125C22.8822 21.3644 23.0483 21.0241 23.0782 20.6592L23.0832 20.54V14.3925ZM21.6248 11.165H10.3748C10.0088 11.1651 9.65624 11.3027 9.38701 11.5506C9.11778 11.7985 8.95162 12.1386 8.9215 12.5034L8.9165 12.6234V12.9809L15.9998 16.7092L23.0832 12.98V12.6234C23.0831 12.2572 22.9454 11.9045 22.6973 11.6353C22.4492 11.366 22.1089 11.2 21.744 11.17L21.6248 11.165Z" fill="white"/>
</svg>
