<svg width="24" height="25" viewBox="0 0 24 25" fill="none" xmlns="http://www.w3.org/2000/svg">
<path d="M22.0832 11.8953C21.2593 10.1595 20.2788 8.74385 19.1418 7.64838L17.9493 8.84088C18.9217 9.77018 19.7687 10.9859 20.5012 12.4999C18.5512 16.5359 15.7832 18.4531 12.0004 18.4531C10.8649 18.4531 9.81905 18.2782 8.8628 17.9285L7.57069 19.2206C8.89882 19.8339 10.3754 20.1406 12.0004 20.1406C16.5051 20.1406 19.866 17.7945 22.0832 13.1023C22.1723 12.9136 22.2186 12.7075 22.2186 12.4988C22.2186 12.2901 22.1723 12.084 22.0832 11.8953ZM20.5933 4.38025L19.5941 3.37994C19.5767 3.36251 19.556 3.34868 19.5333 3.33924C19.5105 3.32981 19.4861 3.32495 19.4615 3.32495C19.4368 3.32495 19.4124 3.32981 19.3897 3.33924C19.3669 3.34868 19.3462 3.36251 19.3288 3.37994L16.7655 5.94213C15.3522 5.22025 13.7638 4.85932 12.0004 4.85932C7.49569 4.85932 4.13475 7.20541 1.91757 11.8976C1.82845 12.0863 1.78223 12.2924 1.78223 12.5011C1.78223 12.7098 1.82845 12.9159 1.91757 13.1046C2.80335 14.9703 3.86975 16.4656 5.11679 17.5908L2.63663 20.0703C2.60149 20.1054 2.58176 20.1531 2.58176 20.2028C2.58176 20.2525 2.60149 20.3002 2.63663 20.3353L3.63718 21.3359C3.67234 21.371 3.72001 21.3908 3.76972 21.3908C3.81942 21.3908 3.86709 21.371 3.90225 21.3359L20.5933 4.64557C20.6107 4.62815 20.6245 4.60747 20.634 4.58471C20.6434 4.56195 20.6483 4.53755 20.6483 4.51291C20.6483 4.48827 20.6434 4.46387 20.634 4.44111C20.6245 4.41835 20.6107 4.39767 20.5933 4.38025ZM3.4996 12.4999C5.45194 8.46401 8.21991 6.54682 12.0004 6.54682C13.2787 6.54682 14.4409 6.76619 15.4954 7.21221L13.8477 8.85986C13.0674 8.44353 12.174 8.28901 11.2991 8.41911C10.4243 8.54921 9.6145 8.95704 8.98911 9.58242C8.36372 10.2078 7.9559 11.0176 7.8258 11.8925C7.6957 12.7673 7.85022 13.6607 8.26655 14.441L6.31139 16.3962C5.22929 15.4411 4.29647 14.1471 3.4996 12.4999ZM9.28163 12.4999C9.28204 12.0867 9.37993 11.6793 9.56736 11.311C9.75478 10.9426 10.0265 10.6237 10.3603 10.38C10.6941 10.1364 11.0807 9.97498 11.4887 9.90884C11.8967 9.8427 12.3145 9.87372 12.7082 9.9994L9.40608 13.3015C9.32332 13.0424 9.28133 12.772 9.28163 12.4999Z" fill="#CCCDCE"/>
<path d="M11.9059 15.1249C11.8248 15.1249 11.7449 15.1212 11.6657 15.1139L10.4277 16.3519C11.1723 16.637 11.9836 16.7004 12.7634 16.5343C13.5432 16.3683 14.2583 15.9798 14.8221 15.416C15.3858 14.8523 15.7743 14.1372 15.9403 13.3574C16.1064 12.5776 16.043 11.7663 15.7579 11.0217L14.5199 12.2597C14.5272 12.3389 14.5309 12.4188 14.5309 12.4999C14.5311 12.8447 14.4634 13.1861 14.3315 13.5047C14.1996 13.8233 14.0063 14.1127 13.7625 14.3565C13.5187 14.6003 13.2293 14.7936 12.9107 14.9255C12.5921 15.0573 12.2507 15.1251 11.9059 15.1249Z" fill="#CCCDCE"/>
</svg>
