<svg width="21" height="21" viewBox="0 0 21 21" fill="none" xmlns="http://www.w3.org/2000/svg">
<path d="M10.0949 1.85628L9.04491 1.22711L8.84491 2.43461C8.52658 4.34128 7.22408 6.11295 5.78741 7.35795C2.97491 9.79628 2.35908 12.4463 3.22991 14.6338C4.06324 16.7271 6.17824 18.1604 8.32491 18.3996L8.82158 18.4546C7.59324 17.7038 6.80491 15.9496 7.07991 14.6388C7.35158 13.3504 8.27824 12.1438 10.0582 11.0304L10.9557 10.4704L11.2907 11.4746C11.4882 12.0679 11.8299 12.5446 12.1774 13.0288C12.3441 13.2621 12.5132 13.4979 12.6682 13.7488C13.2041 14.6196 13.3457 15.5879 12.9999 16.5488C12.6849 17.4221 12.1657 18.1088 11.4499 18.4896L12.2582 18.3996C14.2732 18.1754 15.7524 17.4863 16.7132 16.3338C17.6657 15.1913 17.9999 13.7204 17.9999 12.1546C17.9999 10.6963 17.4007 9.19295 16.6941 7.94211C15.8657 6.47711 14.7849 5.26045 13.6049 4.08128C13.4007 4.48961 13.4166 4.65461 12.9966 5.31045C12.4512 3.86208 11.4274 2.64343 10.0949 1.85628Z" fill="white"/>
</svg>
