<svg width="20" height="21" viewBox="0 0 20 21" fill="none" xmlns="http://www.w3.org/2000/svg">
<path d="M17.7082 11.3333V7.58332C17.7082 6.47825 17.2692 5.41845 16.4878 4.63704C15.7064 3.85564 14.6466 3.41666 13.5415 3.41666H6.45817C5.3531 3.41666 4.29329 3.85564 3.51189 4.63704C2.73049 5.41845 2.2915 6.47825 2.2915 7.58332V13.4167C2.2915 13.9638 2.39928 14.5056 2.60867 15.0112C2.81807 15.5167 3.12498 15.976 3.51189 16.3629C4.29329 17.1443 5.3531 17.5833 6.45817 17.5833H11.6748" stroke="#787878" stroke-width="1.25" stroke-linecap="round" stroke-linejoin="round"/>
<path d="M2.5083 14.6667L4.79163 12C5.0915 11.7022 5.48506 11.5171 5.9057 11.4761C6.32634 11.4351 6.74823 11.5407 7.09997 11.775C7.4517 12.0093 7.87359 12.1149 8.29423 12.0739C8.71488 12.0329 9.10843 11.8478 9.4083 11.55L11.35 9.60834C11.9079 9.04853 12.6465 8.70518 13.4342 8.63954C14.2218 8.57391 15.0071 8.79026 15.65 9.25L17.7083 10.8417M6.67497 8.975C6.85663 8.97391 7.0363 8.93705 7.20371 8.86652C7.37113 8.79599 7.52301 8.69317 7.65069 8.56394C7.77837 8.43471 7.87935 8.2816 7.94786 8.11335C8.01636 7.9451 8.05106 7.765 8.04997 7.58334C8.04887 7.40168 8.01201 7.22201 7.94148 7.05459C7.87095 6.88718 7.76813 6.7353 7.63891 6.60761C7.50968 6.47993 7.35657 6.37896 7.18831 6.31045C7.02006 6.24194 6.83996 6.20724 6.6583 6.20834C6.29142 6.21055 5.94044 6.35841 5.68258 6.6194C5.42471 6.88039 5.28109 7.23312 5.2833 7.60001C5.28551 7.96689 5.43337 8.31787 5.69436 8.57573C5.95535 8.83359 6.30808 8.97721 6.67497 8.975Z" stroke="#787878" stroke-width="1.25" stroke-linecap="round" stroke-linejoin="round"/>
<path d="M15.5889 13V17.1667" stroke="#787878" stroke-width="1.25" stroke-miterlimit="10" stroke-linecap="round"/>
<path d="M17.4999 14.7542L15.8607 13.115C15.8251 13.0792 15.7828 13.0508 15.7362 13.0315C15.6895 13.0121 15.6395 13.0021 15.5891 13.0021C15.5386 13.0021 15.4886 13.0121 15.442 13.0315C15.3953 13.0508 15.353 13.0792 15.3174 13.115L13.6782 14.7542" stroke="#787878" stroke-width="1.25" stroke-linecap="round" stroke-linejoin="round"/>
</svg>
