<svg width="21" height="21" viewBox="0 0 21 21" fill="none" xmlns="http://www.w3.org/2000/svg">
<path d="M7.55421 10.1455C8.49838 9.20135 10.145 9.20135 11.0892 10.1455L11.6784 10.7347L12.8567 9.55635L12.2675 8.96719C11.4817 8.18052 10.435 7.74635 9.32171 7.74635C8.20838 7.74635 7.16171 8.18052 6.37588 8.96719L4.60755 10.7347C3.8282 11.5172 3.39063 12.5766 3.39062 13.6809C3.39062 14.7853 3.8282 15.8447 4.60755 16.6272C4.99402 17.0144 5.45325 17.3214 5.95881 17.5305C6.46437 17.7396 7.00629 17.8466 7.55338 17.8455C8.10061 17.8468 8.64268 17.7397 9.14839 17.5307C9.6541 17.3216 10.1135 17.0145 10.5 16.6272L11.0892 16.038L9.91088 14.8597L9.32171 15.4489C8.8521 15.9164 8.21644 16.1788 7.5538 16.1788C6.89115 16.1788 6.25549 15.9164 5.78588 15.4489C5.31796 14.9795 5.05522 14.3437 5.05522 13.6809C5.05522 13.0182 5.31796 12.3824 5.78588 11.913L7.55421 10.1455Z" fill="white"/>
<path d="M10.5 4.84218L9.91081 5.43135L11.0891 6.60968L11.6783 6.02051C12.1479 5.553 12.7836 5.29054 13.4462 5.29054C14.1089 5.29054 14.7445 5.553 15.2141 6.02051C15.6821 6.48991 15.9448 7.12565 15.9448 7.78843C15.9448 8.45121 15.6821 9.08695 15.2141 9.55635L13.4458 11.3238C12.5016 12.268 10.855 12.268 9.91081 11.3238L9.32164 10.7347L8.14331 11.913L8.73248 12.5022C9.51831 13.2888 10.565 13.723 11.6783 13.723C12.7916 13.723 13.8383 13.2888 14.6241 12.5022L16.3925 10.7347C17.1718 9.9522 17.6094 8.89281 17.6094 7.78843C17.6094 6.68405 17.1718 5.62466 16.3925 4.84218C15.6104 4.06202 14.5509 3.62389 13.4462 3.62389C12.3416 3.62389 11.282 4.06202 10.5 4.84218Z" fill="white"/>
</svg>
