<svg width="21" height="21" viewBox="0 0 21 21" fill="none" xmlns="http://www.w3.org/2000/svg">
<path d="M15.4999 7.16675H14.6666V6.33341C14.6666 4.03591 12.7974 2.16675 10.4999 2.16675C8.20242 2.16675 6.33325 4.03591 6.33325 6.33341V7.16675H5.49992C5.05789 7.16675 4.63397 7.34234 4.32141 7.6549C4.00885 7.96746 3.83325 8.39139 3.83325 8.83341V17.1667C3.83325 17.6088 4.00885 18.0327 4.32141 18.3453C4.63397 18.6578 5.05789 18.8334 5.49992 18.8334H15.4999C15.9419 18.8334 16.3659 18.6578 16.6784 18.3453C16.991 18.0327 17.1666 17.6088 17.1666 17.1667V8.83341C17.1666 8.39139 16.991 7.96746 16.6784 7.6549C16.3659 7.34234 15.9419 7.16675 15.4999 7.16675ZM7.99992 6.33341C7.99992 4.95508 9.12158 3.83341 10.4999 3.83341C11.8783 3.83341 12.9999 4.95508 12.9999 6.33341V7.16675H7.99992V6.33341ZM11.3333 13.6026V15.5001H9.66658V13.6026C9.17075 13.3142 8.83325 12.7826 8.83325 12.1667C8.83325 11.7247 9.00885 11.3008 9.32141 10.9882C9.63397 10.6757 10.0579 10.5001 10.4999 10.5001C10.9419 10.5001 11.3659 10.6757 11.6784 10.9882C11.991 11.3008 12.1666 11.7247 12.1666 12.1667C12.1666 12.7817 11.8291 13.3134 11.3333 13.6026Z" fill="white"/>
</svg>
