<svg width="208" height="50" viewBox="0 0 208 50" fill="none" xmlns="http://www.w3.org/2000/svg">
<path fill-rule="evenodd" clip-rule="evenodd" d="M15.6065 47.5554C16.5824 44.7162 17.2217 41.8896 17.5106 39.1161C18.0981 33.4756 17.2247 28.1635 14.9407 23.4833C12.6567 18.803 9.0068 14.846 4.19912 11.8384L4.02716 11.6755C3.16457 12.9855 2.41461 14.3992 1.79582 15.9082C-3.32535 28.3956 3.01096 42.834 15.6065 47.5554Z" fill="url(#paint0_linear_39_288)"/>
<path fill-rule="evenodd" clip-rule="evenodd" d="M7.47339 7.53061C13.9094 1.34706 23.4647 -0.960438 32.4494 2.25237C39.8125 4.88545 45.0903 10.8157 47.2716 17.7738C41.3893 19.9773 35.6034 20.9694 30.2147 20.6954C24.5511 20.4075 19.4366 18.7272 15.1638 15.75C12.1018 13.6166 9.51508 10.8472 7.47339 7.53061Z" fill="url(#paint1_linear_39_288)"/>
<path d="M44.5858 22.1906C38.8711 22.9573 33.7985 25.0787 29.6579 28.433C25.5174 31.7876 22.3898 36.3096 20.4538 41.741C19.6924 43.8772 19.1213 46.1377 18.7427 48.5006C30.2267 51.152 42.0164 45.2121 46.604 34.0256C48.2332 30.0529 48.7029 25.8828 48.1803 21.8909C46.9617 21.9329 45.7626 22.0326 44.5858 22.1906Z" fill="url(#paint2_linear_39_288)"/>
<path d="M61.7989 33.5524C60.2306 32.0242 59.4463 30.1241 59.4463 27.852C59.4463 25.5796 60.2306 23.6795 61.7989 22.1513C63.3674 20.603 65.3077 19.8289 67.6202 19.8289C69.2893 19.8289 70.7771 20.261 72.0841 21.1258C73.4113 21.9903 74.3865 23.1768 75.01 24.6849L72.0841 25.6802C71.682 24.7753 71.0889 24.0616 70.3046 23.5388C69.5203 23.0158 68.6256 22.7545 67.6202 22.7545C66.2329 22.7545 65.0665 23.2471 64.1215 24.2325C63.1763 25.1975 62.7038 26.404 62.7038 27.852C62.7038 29.2997 63.1763 30.5062 64.1215 31.4713C65.0665 32.4366 66.2329 32.9192 67.6202 32.9192C68.6256 32.9192 69.5203 32.6678 70.3046 32.1651C71.1089 31.6424 71.702 30.9183 72.0841 29.9933L75.01 30.9888C74.3865 32.4967 73.4113 33.6832 72.0841 34.5479C70.7771 35.4125 69.2893 35.8448 67.6202 35.8448C65.3077 35.8448 63.3674 35.0806 61.7989 33.5524ZM80.0731 20.1305V22.3323C80.7569 21.3871 81.6315 20.6934 82.6972 20.2511C83.763 19.8086 84.8992 19.7283 86.1054 20.0097V23.026C84.4366 22.5636 83.0089 22.7144 81.8225 23.4784C80.6563 24.2223 80.0731 25.3384 80.0731 26.8265V35.5432H76.9061V20.1305H80.0731ZM93.6715 19.8289C96.1447 19.8289 98.1556 20.7135 99.7039 22.4831C101.252 24.2525 101.886 26.3941 101.604 28.9077H88.8455C89.0667 30.1543 89.6397 31.1696 90.5649 31.9539C91.4898 32.7181 92.6057 33.1 93.9128 33.1C94.9182 33.1 95.8129 32.8588 96.5972 32.3761C97.4015 31.8734 98.0248 31.1998 98.4674 30.3554L101.122 31.5317C100.438 32.8387 99.4626 33.8843 98.1957 34.6685C96.929 35.4528 95.4712 35.8448 93.8224 35.8448C91.5099 35.8448 89.5694 35.0806 88.0011 33.5524C86.4325 32.0242 85.6485 30.1241 85.6485 27.852C85.6485 25.5796 86.4125 23.6795 87.9407 22.1513C89.4889 20.603 91.3992 19.8289 93.6715 19.8289ZM93.6715 22.5735C92.5052 22.5735 91.4898 22.9356 90.6251 23.6594C89.7806 24.3632 89.2175 25.2881 88.9361 26.4342H98.407C98.1455 25.2881 97.5825 24.3632 96.7178 23.6594C95.8733 22.9356 94.8578 22.5735 93.6715 22.5735ZM110.09 19.8289C111.94 19.8289 113.448 20.3113 114.614 21.2766C115.781 22.2417 116.364 23.6292 116.364 25.439V35.5432H113.197V33.2508C111.93 34.9801 110.141 35.8448 107.828 35.8448C106.36 35.8448 105.164 35.4528 104.239 34.6685C103.314 33.8843 102.851 32.8387 102.851 31.5317C102.851 30.0235 103.384 28.8975 104.45 28.1536C105.516 27.3894 106.873 26.9169 108.522 26.7359L111.508 26.4342C112.634 26.3337 113.197 25.831 113.197 24.9261C113.197 24.1822 112.905 23.5891 112.322 23.1466C111.759 22.7043 111.015 22.4831 110.09 22.4831C109.145 22.4831 108.341 22.7243 107.677 23.207C107.034 23.6896 106.622 24.3934 106.441 25.3184L103.304 24.5643C103.585 23.1164 104.339 21.9703 105.566 21.1258C106.792 20.261 108.301 19.8289 110.09 19.8289ZM108.522 33.281C109.829 33.281 110.935 32.8486 111.84 31.9841C112.745 31.0993 113.197 30.0738 113.197 28.9077V28.3044C112.935 28.5456 112.352 28.7165 111.448 28.817L108.522 29.1791C107.758 29.2796 107.144 29.5109 106.682 29.8727C106.24 30.2145 106.018 30.6872 106.018 31.2905C106.018 31.8937 106.24 32.3761 106.682 32.7382C107.144 33.1 107.758 33.281 108.522 33.281ZM120.043 22.9356H116.755V20.1305H120.043V15.1235L123.21 14.1282V20.1305H127.553V22.9356H123.21V30.0538C123.21 30.9988 123.421 31.6825 123.843 32.1047C124.266 32.527 124.939 32.7382 125.864 32.7382H127.553V35.5432H125.864C123.874 35.5432 122.406 35.0806 121.461 34.1557C120.516 33.2307 120.043 31.8132 120.043 29.9029V22.9356ZM130.677 33.5524C129.108 32.0242 128.324 30.1241 128.324 27.852C128.324 25.5796 129.108 23.6795 130.677 22.1513C132.245 20.603 134.186 19.8289 136.498 19.8289C138.81 19.8289 140.751 20.603 142.319 22.1513C143.888 23.6795 144.671 25.5796 144.671 27.852C144.671 30.1241 143.888 32.0242 142.319 33.5524C140.751 35.0806 138.81 35.8448 136.498 35.8448C134.186 35.8448 132.245 35.0806 130.677 33.5524ZM132.999 24.2325C132.054 25.1975 131.582 26.404 131.582 27.852C131.582 29.2997 132.054 30.5062 132.999 31.4713C133.944 32.4366 135.111 32.9192 136.498 32.9192C137.906 32.9192 139.072 32.4366 139.997 31.4713C140.942 30.5062 141.415 29.2997 141.415 27.852C141.415 26.384 140.942 25.1675 139.997 24.2023C139.072 23.2372 137.906 22.7545 136.498 22.7545C135.111 22.7545 133.944 23.2471 132.999 24.2325ZM149.893 20.1305V22.3323C150.577 21.3871 151.453 20.6934 152.518 20.2511C153.584 19.8086 154.719 19.7283 155.925 20.0097V23.026C154.257 22.5636 152.829 22.7144 151.642 23.4784C150.477 24.2223 149.893 25.3384 149.893 26.8265V35.5432H146.728V20.1305H149.893ZM155.934 31.4713L159.101 30.8078C159.382 32.4566 160.508 33.281 162.478 33.281C163.483 33.281 164.288 33.0901 164.892 32.708C165.515 32.3058 165.826 31.8031 165.826 31.1998C165.826 30.5565 165.505 30.0738 164.862 29.7521C164.217 29.4104 163.433 29.1689 162.508 29.0283C161.584 28.8673 160.648 28.6764 159.703 28.4552C158.777 28.2339 157.994 27.8017 157.351 27.1581C156.706 26.4946 156.385 25.6098 156.385 24.5039C156.385 23.1567 156.959 22.0406 158.104 21.156C159.272 20.2712 160.728 19.8289 162.478 19.8289C164.227 19.8289 165.656 20.2209 166.76 21.0052C167.887 21.7892 168.56 22.8551 168.782 24.2023L165.615 24.8659C165.373 23.2169 164.329 22.3925 162.478 22.3925C161.634 22.3925 160.939 22.5735 160.398 22.9356C159.854 23.2974 159.582 23.7699 159.582 24.3531C159.582 24.8758 159.813 25.2981 160.277 25.62C160.739 25.9417 161.321 26.1527 162.027 26.2532C162.73 26.3538 163.483 26.5046 164.288 26.7057C165.112 26.9067 165.876 27.138 166.579 27.3995C167.285 27.6407 167.867 28.083 168.329 28.7266C168.793 29.37 169.024 30.1744 169.024 31.1396C169.024 32.4868 168.389 33.6129 167.123 34.5177C165.876 35.4025 164.329 35.8448 162.478 35.8448C160.648 35.8448 159.159 35.4528 158.014 34.6685C156.868 33.8843 156.173 32.8187 155.934 31.4713ZM173.945 35.5432H170.778V13.2233H173.945V35.5432ZM182.923 19.8289C184.774 19.8289 186.282 20.3113 187.447 21.2766C188.614 22.2417 189.197 23.6292 189.197 25.439V35.5432H186.03V33.2508C184.763 34.9801 182.974 35.8448 180.662 35.8448C179.192 35.8448 177.997 35.4528 177.071 34.6685C176.148 33.8843 175.684 32.8387 175.684 31.5317C175.684 30.0235 176.217 28.8975 177.283 28.1536C178.349 27.3894 179.706 26.9169 181.354 26.7359L184.34 26.4342C185.466 26.3337 186.03 25.831 186.03 24.9261C186.03 24.1822 185.738 23.5891 185.156 23.1466C184.593 22.7043 183.848 22.4831 182.923 22.4831C181.978 22.4831 181.173 22.7243 180.51 23.207C179.868 23.6896 179.455 24.3934 179.274 25.3184L176.137 24.5643C176.418 23.1164 177.173 21.9703 178.398 21.1258C179.626 20.261 181.134 19.8289 182.923 19.8289ZM181.354 33.281C182.662 33.281 183.768 32.8486 184.672 31.9841C185.579 31.0993 186.03 30.0738 186.03 28.9077V28.3044C185.768 28.5456 185.186 28.7165 184.28 28.817L181.354 29.1791C180.59 29.2796 179.978 29.5109 179.516 29.8727C179.074 30.2145 178.851 30.6872 178.851 31.2905C178.851 31.8937 179.074 32.3761 179.516 32.7382C179.978 33.1 180.59 33.281 181.354 33.281ZM200.364 19.8289C202.515 19.8289 204.315 20.603 205.762 22.1513C207.232 23.6795 207.965 25.5796 207.965 27.852C207.965 30.1241 207.232 32.0242 205.762 33.5524C204.315 35.0806 202.515 35.8448 200.364 35.8448C198.073 35.8448 196.243 34.9801 194.875 33.2508V35.5432H191.708V13.2233H194.875V22.4227C196.243 20.6934 198.073 19.8289 200.364 19.8289ZM199.79 32.9192C201.18 32.9192 202.334 32.4366 203.26 31.4713C204.205 30.5062 204.677 29.2997 204.677 27.852C204.677 26.384 204.205 25.1675 203.26 24.2023C202.334 23.2372 201.18 22.7545 199.79 22.7545C198.384 22.7545 197.208 23.2372 196.263 24.2023C195.337 25.1675 194.875 26.384 194.875 27.852C194.875 29.2997 195.337 30.5062 196.263 31.4713C197.208 32.4366 198.384 32.9192 199.79 32.9192Z" fill="white"/>
<defs>
<linearGradient id="paint0_linear_39_288" x1="10.5205" y1="15.2879" x2="31.9798" y2="33.7831" gradientUnits="userSpaceOnUse">
<stop stop-color="#5D3FD1"/>
<stop offset="1" stop-color="#03ABFF"/>
</linearGradient>
<linearGradient id="paint1_linear_39_288" x1="10.5205" y1="15.2879" x2="31.9797" y2="33.7831" gradientUnits="userSpaceOnUse">
<stop stop-color="#5D3FD1"/>
<stop offset="1" stop-color="#03ABFF"/>
</linearGradient>
<linearGradient id="paint2_linear_39_288" x1="10.5207" y1="15.2879" x2="31.9799" y2="33.7831" gradientUnits="userSpaceOnUse">
<stop stop-color="#5D3FD1"/>
<stop offset="1" stop-color="#03ABFF"/>
</linearGradient>
</defs>
</svg>

