<svg width="20" height="21" viewBox="0 0 20 21" fill="none" xmlns="http://www.w3.org/2000/svg">
<path d="M9.58317 19.0919C4.87484 19.0919 1.0415 15.2585 1.0415 10.5502C1.0415 5.84188 4.87484 2.00854 9.58317 2.00854C14.2915 2.00854 18.1248 5.84188 18.1248 10.5502C18.1248 15.2585 14.2915 19.0919 9.58317 19.0919ZM9.58317 3.25854C5.55817 3.25854 2.2915 6.53355 2.2915 10.5502C2.2915 14.5669 5.55817 17.8419 9.58317 17.8419C13.6082 17.8419 16.8748 14.5669 16.8748 10.5502C16.8748 6.53355 13.6082 3.25854 9.58317 3.25854Z" fill="#CCCDCE"/>
<path d="M18.3335 19.9251C18.1752 19.9251 18.0169 19.8667 17.8919 19.7417L16.2252 18.0751C15.9835 17.8334 15.9835 17.4334 16.2252 17.1917C16.4669 16.9501 16.8669 16.9501 17.1085 17.1917L18.7752 18.8584C19.0169 19.1001 19.0169 19.5001 18.7752 19.7417C18.6502 19.8667 18.4919 19.9251 18.3335 19.9251Z" fill="#CCCDCE"/>
</svg>
