<svg width="21" height="20" viewBox="0 0 21 20" fill="none" xmlns="http://www.w3.org/2000/svg">
<g clip-path="url(#clip0_80_618)">
<path d="M10.5 0C7.84844 0 5.30312 1.05422 3.42969 2.92891C1.55433 4.80435 0.500537 7.34779 0.5 10C0.5 12.6511 1.55469 15.1964 3.42969 17.0711C5.30312 18.9458 7.84844 20 10.5 20C13.1516 20 15.6969 18.9458 17.5703 17.0711C19.4453 15.1964 20.5 12.6511 20.5 10C20.5 7.34891 19.4453 4.80359 17.5703 2.92891C15.6969 1.05422 13.1516 0 10.5 0Z" fill="url(#paint0_linear_80_618)"/>
<path d="M5.02645 9.89429C7.94208 8.62429 9.88583 7.787 10.8577 7.38241C13.6358 6.22726 14.2124 6.02663 14.589 6.01983C14.6718 6.01851 14.8561 6.03898 14.9765 6.13624C15.0765 6.21827 15.1046 6.32921 15.1186 6.4071C15.1311 6.48491 15.1483 6.66226 15.1343 6.80069C14.9843 8.38194 14.3327 12.2191 14.0015 13.9902C13.8624 14.7396 13.5858 14.9908 13.3186 15.0154C12.7374 15.0688 12.2968 14.6316 11.7343 14.263C10.8546 13.686 10.3577 13.3269 9.50302 12.764C8.51552 12.1134 9.15614 11.7557 9.71864 11.1713C9.86552 11.0184 12.4249 8.69101 12.4733 8.47991C12.4796 8.45351 12.4858 8.35507 12.4265 8.30319C12.3686 8.25116 12.2827 8.26898 12.2202 8.28304C12.1311 8.30304 10.7265 9.23241 8.00145 11.071C7.60302 11.3451 7.24208 11.4787 6.91708 11.4716C6.56083 11.464 5.87333 11.2698 5.36239 11.1038C4.73739 10.9002 4.23895 10.7926 4.2827 10.4468C4.30458 10.2668 4.55302 10.0826 5.02645 9.89429Z" fill="white"/>
</g>
<defs>
<linearGradient id="paint0_linear_80_618" x1="1000.5" y1="0" x2="1000.5" y2="2000" gradientUnits="userSpaceOnUse">
<stop stop-color="#2AABEE"/>
<stop offset="1" stop-color="#229ED9"/>
</linearGradient>
<clipPath id="clip0_80_618">
<rect width="20" height="20" fill="white" transform="translate(0.5)"/>
</clipPath>
</defs>
</svg>
