<svg width="20" height="21" viewBox="0 0 20 21" fill="none" xmlns="http://www.w3.org/2000/svg">
<path d="M11.8218 2.79419V5.79086C11.8218 6.19669 11.9834 6.58669 12.2718 6.87419C12.5608 7.162 12.9522 7.32351 13.3601 7.32336H16.7976" stroke="#787878" stroke-width="1.25" stroke-linecap="round" stroke-linejoin="round"/>
<path d="M16.875 7.63994V14.7799C16.8585 15.247 16.7496 15.7061 16.5548 16.1309C16.3601 16.5557 16.0831 16.9377 15.74 17.2549C15.3966 17.5737 14.9938 17.8216 14.5545 17.9846C14.1153 18.1476 13.6482 18.2225 13.18 18.2049H6.855C6.38395 18.2265 5.91328 18.1548 5.46998 17.9941C5.02668 17.8333 4.61946 17.5867 4.27167 17.2683C3.92522 16.9502 3.64545 16.5664 3.44861 16.1392C3.25176 15.712 3.14176 15.25 3.125 14.7799V6.21828C3.14155 5.75125 3.25035 5.29212 3.44515 4.86734C3.63995 4.44257 3.91688 4.06054 4.26 3.74328C4.6034 3.42454 5.00623 3.17659 5.44549 3.01359C5.88474 2.85059 6.35181 2.77572 6.82 2.79328H11.5817C12.3086 2.79071 13.0102 3.05966 13.5492 3.54744L16.0158 5.81578C16.279 6.04251 16.4916 6.32211 16.6396 6.6364C16.7876 6.95068 16.8678 7.29261 16.875 7.63994Z" stroke="#787878" stroke-width="1.25" stroke-linecap="round" stroke-linejoin="round"/>
<path d="M10 9.24902V14.894" stroke="#787878" stroke-width="1.25" stroke-miterlimit="10" stroke-linecap="round"/>
<path d="M12.5883 11.6248L10.3675 9.40399C10.3194 9.35536 10.2622 9.31676 10.1991 9.29041C10.136 9.26406 10.0683 9.25049 9.99995 9.25049C9.93159 9.25049 9.8639 9.26406 9.80082 9.29041C9.73774 9.31676 9.68051 9.35536 9.63245 9.40399L7.41162 11.6257" stroke="#787878" stroke-width="1.25" stroke-linecap="round" stroke-linejoin="round"/>
</svg>
