<svg width="20" height="21" viewBox="0 0 20 21" fill="none" xmlns="http://www.w3.org/2000/svg">
<path d="M18.5109 4.78462C17.8747 5.06585 17.2 5.25065 16.5093 5.33296C17.2366 4.89695 17.7808 4.21172 18.0409 3.40462C17.3576 3.81129 16.6084 4.09629 15.8284 4.25046C15.3039 3.68927 14.6087 3.31709 13.8509 3.19178C13.0931 3.06646 12.3151 3.19503 11.6378 3.5575C10.9606 3.91997 10.4221 4.49603 10.106 5.19612C9.78997 5.89621 9.71406 6.68111 9.8901 7.42879C8.50417 7.35966 7.1483 6.99969 5.91058 6.37229C4.67286 5.74489 3.581 4.86409 2.70594 3.78712C2.39625 4.3192 2.23348 4.92399 2.23427 5.53962C2.23427 6.74796 2.8501 7.81546 3.78427 8.44046C3.2311 8.42202 2.69019 8.27265 2.20594 8.00462V8.04712C2.20591 8.85202 2.4843 9.63214 2.99388 10.2552C3.50346 10.8782 4.21287 11.3058 5.00177 11.4655C4.48816 11.6049 3.9495 11.6255 3.42677 11.5255C3.64921 12.2183 4.08278 12.8242 4.66677 13.2583C5.25076 13.6924 5.9559 13.933 6.68344 13.9463C5.96027 14.5139 5.13236 14.9336 4.247 15.1812C3.36164 15.4288 2.43617 15.4997 1.52344 15.3896C3.11652 16.4141 4.97102 16.9581 6.8651 16.9563C13.2768 16.9563 16.7818 11.6455 16.7818 7.03962C16.7818 6.88907 16.7784 6.73879 16.7718 6.58879C17.4537 6.09571 18.0424 5.48506 18.5101 4.78546" fill="white"/>
</svg>
